<?xml version="1.0" encoding="utf-8"?>
<!-- Generator: Adobe Illustrator 24.1.0, SVG Export Plug-In . SVG Version: 6.00 Build 0)  -->
<svg version="1.1" id="Layer_1" xmlns="http://www.w3.org/2000/svg" xmlns:xlink="http://www.w3.org/1999/xlink" x="0px" y="0px"
	 viewBox="0 0 128 128" style="enable-background:new 0 0 128 128;" xml:space="preserve">
<style type="text/css">
	.st0{fill:none;}
	.st1{fill:#FFFFFF;}
	.st2{fill:#233247;}
	.st3{fill:#1FA6AA;}
	.st4{opacity:0.4;}
	.st5{fill:#332E20;}
	.st6{fill:#F2F2F1;}
	.st7{fill:#C93755;}
</style>
<g>
	<path class="st6" d="M18.4,60.6L77.2,1.9c0.9-0.9,2.1-1.4,3.4-1.4h0c4.3,0,6.4,5.2,3.4,8.2L28,64l55.9,55.3c3,3,0.9,8.2-3.4,8.2h0
		c-1.3,0-2.5-0.5-3.4-1.4L18.4,67.4C16.6,65.5,16.6,62.5,18.4,60.6z"/>
</g>
<g class="st4">
	<path class="st6" d="M102.1,0.5L102.1,0.5c-0.6,0-1.1,0.2-1.5,0.6L40.3,62.6c-0.8,0.8-0.8,2.1,0,2.9l60.4,61.4
		c0.4,0.4,0.9,0.6,1.5,0.6h0c1.8,0,2.7-2.2,1.5-3.5L44.7,64l58.9-60C104.9,2.7,103.9,0.5,102.1,0.5z"/>
</g>
<rect x="0" y="0" class="st0" width="128" height="128"/>
</svg>
