<?xml version="1.0" encoding="utf-8"?>
<!-- Generator: Adobe Illustrator 24.1.0, SVG Export Plug-In . SVG Version: 6.00 Build 0)  -->
<svg version="1.1" id="Layer_1" xmlns="http://www.w3.org/2000/svg" xmlns:xlink="http://www.w3.org/1999/xlink" x="0px" y="0px"
	 viewBox="0 0 128 128" style="enable-background:new 0 0 128 128;" xml:space="preserve">
<style type="text/css">
	.st0{fill:none;}
	.st1{fill:#FFFFFF;}
	.st2{fill:#233247;}
	.st3{fill:#1FA6AA;}
	.st4{opacity:0.4;}
	.st5{fill:#332E20;}
	.st6{fill:#F2F2F1;}
	.st7{fill:#C93755;}
</style>
<g>
	<path class="st6" d="M109.6,67.4l-58.7,58.7c-0.9,0.9-2.1,1.4-3.4,1.4h0c-4.3,0-6.4-5.2-3.4-8.2L100,64L44.1,8.6
		c-3-3-0.9-8.2,3.4-8.2h0c1.3,0,2.5,0.5,3.4,1.4l58.7,58.7C111.4,62.5,111.4,65.5,109.6,67.4z"/>
</g>
<g>
	<path class="st7" d="M25.9,127.5L25.9,127.5c0.6,0,1.1-0.2,1.5-0.6l60.4-61.4c0.8-0.8,0.8-2.1,0-2.9L27.3,1.1
		c-0.4-0.4-0.9-0.6-1.5-0.6h0c-1.8,0-2.7,2.2-1.5,3.5l58.9,60l-58.9,60C23.1,125.3,24.1,127.5,25.9,127.5z"/>
</g>
<rect x="0" y="0" transform="matrix(-1 -1.224647e-16 1.224647e-16 -1 128 128)" class="st0" width="128" height="128"/>
</svg>
