<?xml version="1.0" encoding="utf-8"?>
<!-- Generator: Adobe Illustrator 24.1.0, SVG Export Plug-In . SVG Version: 6.00 Build 0)  -->
<svg version="1.1" id="Layer_1" xmlns="http://www.w3.org/2000/svg" xmlns:xlink="http://www.w3.org/1999/xlink" x="0px" y="0px"
	 viewBox="0 0 128 128" style="enable-background:new 0 0 128 128;" xml:space="preserve">
<style type="text/css">
	.st0{fill:none;}
	.st1{fill:#FFFFFF;}
	.st2{fill:#233247;}
	.st3{fill:#1FA6AA;}
	.st4{opacity:0.4;}
	.st5{fill:#332E20;}
	.st6{fill:#F2F2F1;}
	.st7{fill:#C93755;}
</style>
<path class="st7" d="M25,0l78,0c13.8,0,25,11.2,25,25v78c0,13.8-11.2,25-25,25H25c-13.8,0-25-11.2-25-25l0-78C0,11.2,11.2,0,25,0z"
	/>
<g>
	<path class="st6" d="M32.3,61.8l39.5-39.5c0.6-0.6,1.4-0.9,2.3-0.9h0c2.9,0,4.3,3.5,2.3,5.5L38.7,64l37.6,37.2c2,2,0.6,5.5-2.3,5.5
		h0c-0.8,0-1.7-0.3-2.3-0.9L32.3,66.3C31,65,31,63,32.3,61.8z"/>
</g>
<g class="st4">
	<path class="st6" d="M88.5,21.4L88.5,21.4c-0.4,0-0.7,0.1-1,0.4L47,63.1c-0.5,0.5-0.5,1.4,0,1.9l40.6,41.3c0.3,0.3,0.6,0.4,1,0.4h0
		c1.2,0,1.8-1.5,1-2.3L49.9,64l39.6-40.3C90.4,22.8,89.7,21.4,88.5,21.4z"/>
</g>
</svg>
