<?xml version="1.0" encoding="utf-8"?>
<!-- Generator: Adobe Illustrator 24.1.0, SVG Export Plug-In . SVG Version: 6.00 Build 0)  -->
<svg version="1.1" id="Layer_1" xmlns="http://www.w3.org/2000/svg" xmlns:xlink="http://www.w3.org/1999/xlink" x="0px" y="0px"
	 viewBox="0 0 128 128" style="enable-background:new 0 0 128 128;" xml:space="preserve">
<style type="text/css">
	.st0{fill:none;}
	.st1{fill:#FFFFFF;}
	.st2{fill:#233247;}
	.st3{fill:#1FA6AA;}
	.st4{opacity:0.4;}
	.st5{fill:#332E20;}
	.st6{fill:#F2F2F1;}
	.st7{fill:#C93755;}
	.st8{fill:#FFFFFF;stroke:#233247;stroke-width:0.75;stroke-miterlimit:10;}
	.st9{fill:#1FA6AA;stroke:#1FA6AA;stroke-width:0.75;stroke-miterlimit:10;}
	.st10{fill:#233247;stroke:#233247;stroke-width:0.75;stroke-miterlimit:10;}
</style>
<path d="M103,128H25c-13.8,0-25-11.2-25-25l0-78C0,11.2,11.2,0,25,0l78,0c13.8,0,25,11.2,25,25v78C128,116.8,116.8,128,103,128z"/>
<g>
	<path class="st1" d="M95.7,66.2l-39.5,39.5c-0.6,0.6-1.4,0.9-2.3,0.9h0c-2.9,0-4.3-3.5-2.3-5.5L89.3,64L51.7,26.8
		c-2-2-0.6-5.5,2.3-5.5h0c0.8,0,1.7,0.3,2.3,0.9l39.5,39.5C97,63,97,65,95.7,66.2z"/>
</g>
<g>
	<path class="st1" d="M39.5,106.6L39.5,106.6c0.4,0,0.7-0.1,1-0.4L81,64.9c0.5-0.5,0.5-1.4,0-1.9L40.5,21.7c-0.3-0.3-0.6-0.4-1-0.4
		h0c-1.2,0-1.8,1.5-1,2.3L78.1,64l-39.6,40.3C37.6,105.2,38.3,106.6,39.5,106.6z"/>
</g>
</svg>
